<svg width="189" height="51" viewBox="0 0 189 51" fill="none" xmlns="http://www.w3.org/2000/svg">
<g clip-path="url(#clip0_175_9)">
<path d="M169.218 50.5741V36.223C171.009 38.2693 173.522 39.4388 176.677 39.4388C183.975 39.4388 189.001 33.8311 189.001 25.0875C189.001 16.4502 184.215 10.8691 176.73 10.8691C173.496 10.8691 170.876 12.0916 168.764 14.6429V11.5335H161.68V50.6538H169.191V50.5741H169.218ZM175.233 33.1667C171.357 33.1667 168.978 30.2964 168.978 25.0609C168.978 19.8254 171.303 17.0348 175.233 17.0348C179.19 17.0348 181.515 19.8785 181.515 25.0609C181.515 30.2433 179.19 33.1667 175.233 33.1667Z" fill="white"/>
<path d="M150.29 38.7753V25.3809C150.29 20.3845 152.349 18.0724 155.931 18.0724C156.893 18.0724 157.535 18.0989 158.711 18.3115V11.3485C158.096 11.1891 157.161 11.1094 156.466 11.1094C153.926 11.1094 151.44 12.2787 149.836 15.4147V11.4283H142.752V38.7488H150.29V38.7753Z" fill="white"/>
<path d="M126.232 39.4132C134.599 39.4132 139.999 33.8057 139.999 25.0621C139.999 16.4248 134.599 10.8438 126.232 10.8438C117.945 10.8438 112.465 16.4514 112.465 25.0621C112.465 33.8589 117.945 39.4132 126.232 39.4132ZM126.232 33.1679C122.276 33.1679 119.95 30.2179 119.95 25.0621C119.95 19.9063 122.276 17.0361 126.232 17.0361C130.109 17.0361 132.488 19.9063 132.488 25.0621C132.488 30.2179 130.109 33.1679 126.232 33.1679Z" fill="white"/>
<path d="M97.2797 39.4125C104.257 39.4125 109.283 35.3729 110.379 28.596H102.814C102.065 31.6523 100.033 33.1406 97.3063 33.1406C93.5105 33.1406 91.2113 30.1906 91.2113 25.0347C91.2113 19.879 93.4835 17.0087 97.3063 17.0087C99.9261 17.0087 101.771 18.3375 102.68 20.9952H110.325C109.096 14.5105 104.096 10.8164 97.3333 10.8164C89.1531 10.8164 83.7797 16.424 83.7797 25.0347C83.7261 33.8581 89.0995 39.4125 97.2797 39.4125Z" fill="white"/>
<path d="M69.1039 39.4126C76.6423 39.4126 81.4811 33.8051 81.4811 25.0615C81.4811 16.4242 76.6423 10.8431 69.1571 10.8431C66.083 10.8431 63.6503 11.9062 61.6989 14.2981V0H54.1602V38.8014H61.2442V35.9312C63.1959 38.3231 65.7354 39.4126 69.1039 39.4126ZM67.6868 33.1673C63.8107 33.1673 61.4313 30.2173 61.4313 25.0615C61.4313 19.9057 63.7571 17.0354 67.6868 17.0354C71.6434 17.0354 73.9689 19.9057 73.9689 25.0615C73.9689 30.2173 71.6434 33.1673 67.6868 33.1673Z" fill="white"/>
<path d="M35.2867 39.4132C38.7886 39.4132 41.7559 38.1908 43.7879 35.2143V38.7755H50.8719V22.6968C50.8719 14.219 47.2898 10.8438 39.1095 10.8438C32.3996 10.8438 26.8392 13.7937 26.6521 20.1455H34.1105C34.2709 17.8865 35.8214 16.4248 38.7886 16.4248C41.8628 16.4248 43.3601 17.7536 43.3601 20.9162V21.8729L36.6501 22.9626C31.3303 23.7864 25.957 25.6202 25.957 31.3607C25.957 36.5431 29.1917 39.4132 35.2867 39.4132ZM37.3451 33.7791C34.5917 33.7791 33.4689 32.8224 33.4689 30.9355C33.4689 28.6233 35.4204 27.8792 38.5214 27.3743L43.3601 26.6301V28.3841C43.3601 31.7328 40.4997 33.7791 37.3451 33.7791Z" fill="white"/>
<path d="M19.0871 38.775V7.17562H30.3951V0H0V7.17562H11.2812V38.775H19.0871Z" fill="white"/>
</g>
<defs>
<clipPath id="clip0_175_9">
<rect width="189" height="51" fill="white"/>
</clipPath>
</defs>
</svg>
